<?xml version="1.0" encoding="utf-8"?>
<!-- Generator: Adobe Illustrator 27.3.1, SVG Export Plug-In . SVG Version: 6.00 Build 0)  -->
<svg version="1.1" id="Слой_1" xmlns="http://www.w3.org/2000/svg" xmlns:xlink="http://www.w3.org/1999/xlink" x="0px" y="0px"
	 viewBox="0 0 342.86 65.56" style="enable-background:new 0 0 342.86 65.56;" xml:space="preserve">
<style type="text/css">
	.st0{fill:#6D7EF7;}
	.st1{fill:#DDC63E;}
</style>
<g>
	<g>
		<path d="M14.19,53.05c0.39,0.3,0.58,0.63,0.58,0.97c0,0.67-0.62,1.21-1.39,1.21c-0.39,0-0.74-0.12-0.99-0.34
			c-1.06-0.95-2.36-1.43-3.9-1.43c-1.52,0-2.84,0.48-3.93,1.43c-1.09,0.95-1.62,2.08-1.62,3.41c0,1.33,0.53,2.48,1.62,3.43
			c1.09,0.95,2.4,1.41,3.93,1.41s2.82-0.46,3.9-1.41c0.55-0.48,1.43-0.48,1.96,0c0.55,0.46,0.55,1.23,0,1.72
			c-1.62,1.41-3.58,2.12-5.87,2.12s-4.25-0.71-5.89-2.12c-1.62-1.43-2.43-3.15-2.43-5.15c0-2,0.81-3.71,2.43-5.13
			c1.64-1.43,3.6-2.14,5.89-2.14C10.63,51.03,12.55,51.69,14.19,53.05z"/>
		<path d="M39.95,52.24c0-0.67,0.62-1.21,1.39-1.21s1.39,0.54,1.39,1.21v6.56c0,1.88-0.76,3.47-2.26,4.78
			c-1.5,1.31-3.33,1.98-5.47,1.98c-2.15,0-3.97-0.67-5.47-1.98c-1.5-1.31-2.26-2.91-2.26-4.78v-6.56c0-0.67,0.62-1.21,1.39-1.21
			c0.76,0,1.39,0.54,1.39,1.21v6.66c0.02,1.19,0.53,2.18,1.48,3.01c0.97,0.83,2.13,1.23,3.49,1.23s2.54-0.42,3.51-1.27
			c0.97-0.85,1.45-1.88,1.45-3.07V52.24z"/>
		<path d="M62.57,63.14c2.84,0,4.27-0.61,4.27-1.82c0-1.21-1.43-1.82-4.27-1.82c-2.15,0-3.86-0.36-5.13-1.07
			c-1.27-0.71-1.92-1.78-1.92-3.17c0-1.31,0.65-2.36,1.94-3.11c1.32-0.75,3-1.13,5.1-1.13c2.01,0,3.79,0.3,5.38,0.91
			c0.76,0.3,1.13,0.91,0.85,1.53c-0.32,0.71-0.9,0.97-1.73,0.75c-1.43-0.5-2.93-0.77-4.5-0.77c-2.84,0-4.27,0.61-4.27,1.82
			s1.43,1.82,4.27,1.82c2.15,0,3.86,0.36,5.13,1.07c1.27,0.71,1.92,1.78,1.92,3.17c0,1.31-0.65,2.36-1.96,3.11
			c-1.29,0.75-2.98,1.13-5.08,1.13h-0.69c-2.01,0-3.79-0.3-5.38-0.89c-0.72-0.22-1.13-0.95-0.85-1.57c0.3-0.67,1.04-0.95,1.76-0.73
			c1.55,0.5,3.05,0.77,4.48,0.77H62.57z"/>
		<path d="M88.46,53.45h-5.54c-0.76,0-1.39-0.55-1.39-1.21c0-0.67,0.62-1.21,1.39-1.21h13.86c0.76,0,1.39,0.54,1.39,1.21
			c0,0.67-0.62,1.21-1.39,1.21h-5.54v10.9c0,0.67-0.62,1.21-1.39,1.21c-0.76,0-1.39-0.55-1.39-1.21V53.45z"/>
		<path d="M109.95,58.29c0-2,0.81-3.71,2.43-5.13c1.64-1.43,3.6-2.14,5.89-2.14c2.29,0,4.25,0.71,5.87,2.14
			c1.64,1.41,2.45,3.13,2.45,5.13c0,2-0.81,3.71-2.45,5.15c-1.62,1.41-3.58,2.12-5.87,2.12c-2.29,0-4.25-0.71-5.89-2.12
			C110.76,62.01,109.95,60.29,109.95,58.29z M112.72,58.29c0,1.33,0.53,2.48,1.62,3.43c1.09,0.95,2.4,1.41,3.93,1.41
			c1.52,0,2.82-0.46,3.9-1.41c1.09-0.95,1.64-2.1,1.64-3.43c0-1.33-0.55-2.46-1.64-3.41c-1.09-0.95-2.38-1.43-3.9-1.43
			c-1.52,0-2.84,0.48-3.93,1.43C113.25,55.83,112.72,56.96,112.72,58.29z"/>
		<path d="M155.46,55.17l-5.73,5.01c-0.25,0.22-0.58,0.34-0.97,0.34c-0.39,0-0.74-0.12-0.99-0.34l-5.71-5.01v9.18
			c0,0.67-0.62,1.21-1.39,1.21c-0.76,0-1.39-0.55-1.39-1.21V52.24c0-0.67,0.62-1.21,1.39-1.21c0.35,0,0.67,0.12,0.97,0.34l7.11,6.22
			l7.09-6.2c0.88-0.77,2.38-0.2,2.38,0.85v12.11c0,0.67-0.62,1.21-1.39,1.21c-0.76,0-1.39-0.55-1.39-1.21V55.17z"/>
		<path d="M178.31,63.14c2.84,0,4.27-0.61,4.27-1.82c0-1.21-1.43-1.82-4.27-1.82c-2.15,0-3.86-0.36-5.13-1.07
			c-1.27-0.71-1.92-1.78-1.92-3.17c0-1.31,0.65-2.36,1.94-3.11c1.32-0.75,3-1.13,5.11-1.13c2.01,0,3.79,0.3,5.38,0.91
			c0.76,0.3,1.13,0.91,0.85,1.53c-0.32,0.71-0.9,0.97-1.73,0.75c-1.43-0.5-2.93-0.77-4.5-0.77c-2.84,0-4.27,0.61-4.27,1.82
			s1.43,1.82,4.27,1.82c2.15,0,3.86,0.36,5.13,1.07c1.27,0.71,1.92,1.78,1.92,3.17c0,1.31-0.65,2.36-1.96,3.11
			c-1.29,0.75-2.98,1.13-5.08,1.13h-0.69c-2.01,0-3.79-0.3-5.38-0.89c-0.72-0.22-1.13-0.95-0.85-1.57c0.3-0.67,1.04-0.95,1.76-0.73
			c1.55,0.5,3.05,0.77,4.48,0.77H178.31z"/>
	</g>
	<path d="M0,14.16c0-2.29,2.15-4.17,4.78-4.17c2.63,0,4.78,1.88,4.78,4.17v8.35h16.71v-8.35c0-2.29,2.15-4.17,4.78-4.17
		c2.63,0,4.78,1.88,4.78,4.17V39.2c0,2.29-2.15,4.17-4.78,4.17c-2.63,0-4.78-1.88-4.78-4.17v-8.35H9.55v8.35
		c0,2.29-2.15,4.17-4.78,4.17C2.15,43.37,0,41.49,0,39.2V14.16z"/>
	<path d="M44.41,14.16c0-2.29,2.15-4.17,4.78-4.17c2.63,0,4.78,1.88,4.78,4.17V39.2c0,2.29-2.15,4.17-4.78,4.17
		c-2.63,0-4.78-1.88-4.78-4.17V14.16z"/>
	<path d="M85.58,33.56v-2.21H80.8c-2.63,0-4.78-1.88-4.78-4.17s2.15-4.17,4.78-4.17h9.55c2.63,0,4.78,1.88,4.78,4.17v8.34
		c0,1.21-0.48,2.17-1.43,2.96h0.05c-3.72,3.25-8.21,4.88-13.51,4.88c-5.3,0-9.79-1.63-13.51-4.88c-3.72-3.25-5.59-7.18-5.59-11.81
		s1.86-8.55,5.59-11.81c3.73-3.25,8.21-4.88,13.51-4.88c5.21,0,9.74,1.63,13.51,4.88c0.91,0.88,1.39,1.88,1.39,2.96
		c0,2.29-2.15,4.17-4.78,4.17c-1.34,0-2.48-0.42-3.39-1.21c-1.86-1.63-4.11-2.46-6.73-2.46c-2.63,0-4.87,0.83-6.73,2.46
		c-1.86,1.63-2.82,3.59-2.82,5.88s0.96,4.26,2.82,5.88c1.86,1.63,4.11,2.46,6.73,2.46C82.19,35.02,83.96,34.52,85.58,33.56z"/>
	<path d="M102.3,14.16c0-2.29,2.15-4.17,4.78-4.17c2.63,0,4.78,1.88,4.78,4.17v8.35h16.71v-8.35c0-2.29,2.15-4.17,4.78-4.17
		c2.63,0,4.78,1.88,4.78,4.17V39.2c0,2.29-2.15,4.17-4.78,4.17c-2.63,0-4.78-1.88-4.78-4.17v-8.35h-16.71v8.35
		c0,2.29-2.15,4.17-4.78,4.17c-2.63,0-4.78-1.88-4.78-4.17V14.16z"/>
	<path d="M151.48,43.37c-2.63,0-4.78-1.88-4.78-4.17V14.16c0-2.29,2.15-4.17,4.78-4.17h19.29c3.25,0.04,6.02,1.08,8.31,3.13
		c2.29,2.04,3.44,4.46,3.44,7.3c0,2.29-0.81,4.38-2.39,6.26c1.58,1.88,2.39,3.96,2.39,6.26c0,2.88-1.15,5.34-3.49,7.39
		c-2.34,2.04-5.16,3.05-8.45,3.05H151.48z M156.26,18.33v4.17h14.33c1.34,0,2.39-0.92,2.39-2.09s-1.05-2.09-2.39-2.09H156.26z
		 M156.26,30.85v4.17h14.33c1.34,0,2.39-0.92,2.39-2.09c0-1.13-1-2.04-2.2-2.09H156.26z"/>
	<path d="M190.17,14.16c0-2.29,2.15-4.17,4.78-4.17h14.33c3.63,0,6.73,1.13,9.26,3.38c2.58,2.21,3.87,4.92,3.87,8.1
		c0,4.01-2.39,7.55-6.07,9.68l5.87,5.09c0.91,0.88,1.39,1.88,1.39,2.96c0,2.29-2.15,4.17-4.78,4.17c-1.34,0-2.48-0.42-3.39-1.21
		l-10.55-9.22h-5.16v6.26c0,2.29-2.15,4.17-4.78,4.17c-2.63,0-4.78-1.88-4.78-4.17V14.16z M199.72,18.33v6.26h9.55
		c1.96,0,3.58-1.42,3.58-3.13c0-1.67-1.58-3-3.44-3.13H199.72z"/>
	<path d="M314.87,25.3l-7.16,15.48c-0.76,1.54-2.53,2.59-4.44,2.59c-1.96,0-3.72-1.04-4.44-2.59l-11.6-25.08
		c-0.24-0.42-0.33-0.92-0.33-1.54c0-2.29,2.15-4.17,4.78-4.17c1.91,0,3.68,1.04,4.44,2.59l7.16,15.48l7.16-15.48
		c0.72-1.54,2.48-2.59,4.44-2.59c1.91,0,3.68,1.04,4.44,2.59l7.16,15.48l7.16-15.48c0.72-1.54,2.48-2.59,4.44-2.59
		c2.63,0,4.78,1.88,4.78,4.17c0,0.5-0.1,1-0.33,1.54l-11.6,25.08c-0.76,1.54-2.53,2.59-4.44,2.59c-1.96,0-3.72-1.04-4.44-2.59
		L314.87,25.3z"/>
	<g>
		<path class="st0" d="M281.26,17.61c-5.1-13.92-20.53-21.07-34.45-15.97c-13.92,5.1-21.07,20.53-15.96,34.45
			c4.44,12.1,16.67,19.08,28.94,17.35l7.72,4.65l2.89-8.54C280.87,42.94,285.69,29.71,281.26,17.61z M274.13,27.92
			c-0.01,0.15-0.02,0.29-0.03,0.44c-0.05,0.59-0.13,1.18-0.24,1.76c-0.05,0.29-0.12,0.59-0.18,0.88c-0.07,0.29-0.15,0.58-0.23,0.88
			c-0.08,0.29-0.18,0.58-0.28,0.87c-0.2,0.58-0.43,1.15-0.69,1.72c-0.26,0.57-0.55,1.11-0.86,1.64c-0.16,0.26-0.32,0.52-0.49,0.77
			c-0.17,0.25-0.34,0.5-0.52,0.74c-0.18,0.24-0.36,0.48-0.55,0.71c-0.38,0.46-0.78,0.9-1.19,1.32c-0.21,0.21-0.42,0.41-0.64,0.61
			c-0.22,0.2-0.44,0.39-0.67,0.57c-0.11,0.09-0.23,0.18-0.34,0.27c-0.23,0.18-0.46,0.35-0.7,0.52c-0.15,0.1-0.3,0.21-0.45,0.31
			c-0.58,0.38-1.17,0.73-1.78,1.04c-0.39,0.2-0.78,0.38-1.18,0.55c-0.27,0.11-0.54,0.22-0.81,0.32c-0.27,0.1-0.54,0.19-0.82,0.28
			c-1.24,0.39-2.53,0.65-3.84,0.76c-0.29,0.03-0.58,0.04-0.87,0.06c-0.58,0.02-1.17,0.02-1.76-0.02c-0.29-0.02-0.59-0.04-0.88-0.07
			c-0.61-0.07-1.22-0.16-1.82-0.29c-0.9-0.19-1.8-0.46-2.69-0.8c-0.39-0.15-0.78-0.31-1.16-0.49c-1.84-0.85-3.47-1.98-4.87-3.3
			c-0.21-0.2-0.42-0.41-0.63-0.63c-0.41-0.43-0.79-0.87-1.15-1.33c-0.18-0.23-0.35-0.46-0.52-0.7c-0.76-1.07-1.39-2.22-1.9-3.42
			c-0.11-0.27-0.22-0.54-0.32-0.81c-0.1-0.27-0.19-0.55-0.28-0.82c-0.13-0.42-0.24-0.83-0.35-1.26c-0.2-0.85-0.34-1.71-0.42-2.58
			c-0.03-0.29-0.04-0.58-0.06-0.87c-0.01-0.15-0.01-0.29-0.01-0.44c0-0.29,0-0.59,0.01-0.88c0.01-0.29,0.03-0.59,0.05-0.88
			c0.05-0.59,0.13-1.18,0.24-1.77c0.05-0.29,0.12-0.59,0.18-0.88c0.07-0.29,0.15-0.58,0.23-0.88c0.08-0.29,0.18-0.58,0.28-0.87
			c0.2-0.58,0.43-1.15,0.69-1.72c0.26-0.57,0.55-1.11,0.86-1.64c0.16-0.26,0.32-0.52,0.49-0.77c0.17-0.25,0.34-0.5,0.52-0.74
			c0.18-0.24,0.36-0.48,0.55-0.71c0.38-0.46,0.78-0.9,1.19-1.32c0.1-0.1,0.21-0.21,0.32-0.31c0.32-0.3,0.65-0.6,0.99-0.88
			c0.11-0.09,0.23-0.18,0.34-0.27c0.23-0.18,0.46-0.35,0.7-0.52c0.72-0.5,1.46-0.96,2.24-1.35c0.39-0.2,0.78-0.38,1.18-0.55
			c0.27-0.11,0.54-0.22,0.81-0.32c0.27-0.1,0.55-0.19,0.82-0.28c0.13-0.04,0.26-0.08,0.4-0.12c1.12-0.32,2.27-0.54,3.44-0.64
			c0.29-0.03,0.58-0.04,0.87-0.06c0.29-0.01,0.59-0.02,0.88-0.01c0.2,0,0.41,0.01,0.61,0.02c0.09,0,0.18,0.01,0.27,0.01
			c0.29,0.02,0.59,0.04,0.88,0.07c1.74,0.19,3.47,0.63,5.16,1.35c0.17,0.07,0.34,0.15,0.51,0.23c0.1,0.05,0.2,0.09,0.3,0.14
			c0.28,0.14,0.55,0.28,0.82,0.43c0.6,0.33,1.17,0.68,1.71,1.07c0.11,0.08,0.21,0.15,0.32,0.23c0.14,0.11,0.29,0.22,0.43,0.33
			c0.45,0.35,0.88,0.73,1.29,1.12c0.04,0.03,0.07,0.07,0.11,0.1c0.17,0.17,0.35,0.34,0.51,0.52c0,0,0,0,0.01,0.01
			c0.16,0.16,0.31,0.33,0.46,0.5c0.04,0.05,0.09,0.1,0.13,0.15c0.11,0.12,0.21,0.24,0.31,0.37c0.08,0.1,0.17,0.21,0.25,0.31
			c0.18,0.23,0.35,0.46,0.52,0.7c0.43,0.61,0.82,1.25,1.17,1.9c0.27,0.5,0.51,1,0.73,1.52c0.11,0.27,0.22,0.54,0.32,0.81
			c0.1,0.27,0.19,0.55,0.28,0.82c0.13,0.41,0.24,0.83,0.34,1.26c0.2,0.85,0.34,1.71,0.42,2.58c0.02,0.29,0.04,0.58,0.06,0.87
			c0.01,0.15,0.01,0.29,0.01,0.44C274.16,27.03,274.15,27.47,274.13,27.92z"/>
	</g>
	<g>
		<path class="st1" d="M270.25,21.49c-0.1-0.22-0.46-0.35-0.35-0.63c0.07-0.16,0.17-0.27,0.23-0.46c0.01-0.05,0.03-0.12,0.05-0.19
			c-0.09-0.2-0.19-0.39-0.29-0.59c-0.15,0.04-0.33,0.11-0.48,0.12c-0.14,0-0.34-0.01-0.45-0.09c-0.07-0.05-0.17-0.23-0.11-0.38
			c0,0,0,0,0,0c0.07-0.17,0.19-0.12,0.31-0.28c0.02-0.12-0.1-0.14-0.17-0.27c-0.08-0.14-0.08-0.38-0.23-0.47
			c-0.07-0.05-0.21-0.02-0.29-0.06c-0.16-0.06-0.26-0.19-0.38-0.29c-0.06-0.06-0.12-0.1-0.2-0.11c-0.01,0-0.02,0-0.03,0
			c-0.13-0.01-0.24,0.09-0.35,0.17c-0.08,0.05-0.15,0.1-0.25,0.08c-0.04,0.17-0.31,0.17-0.39,0.29c-0.06,0.08-0.06,0.19-0.09,0.27
			c-0.31,0.79-1.1,0.85-1.84,0.49c-0.21,0.07-0.3,0.35-0.47,0.5c-0.14,0.13-0.46,0.19-0.61,0.1c-0.11-0.07-0.17-0.3-0.12-0.41
			c0.06-0.14,0.3-0.12,0.25-0.33c0.07-0.1,0.33-0.05,0.38-0.23c0.05-0.19-0.24-0.21-0.44-0.34c-0.15-0.09-0.32-0.29-0.42-0.43
			c-0.14-0.19-0.21-0.47-0.44-0.61c-0.13-0.08-0.29-0.08-0.32-0.19c-0.03-0.12,0.13-0.2,0.16-0.26c0.04-0.1-0.13-0.21-0.09-0.31
			c0.02-0.07,0.3-0.2,0.4-0.22c0.18-0.05,0.46-0.06,0.72-0.08c0.25-0.02,0.54-0.02,0.76,0c0.1,0.01,0.19,0.06,0.28,0.07
			c0.24,0.02,0.44-0.06,0.65-0.03c0.11,0.02,0.22,0.07,0.34,0.1c0.13,0.03,0.27,0.02,0.39,0.02c0.1-0.01,0.19-0.01,0.28-0.01
			c0.05,0,0.1,0.01,0.15,0.02c-0.14,0.16-0.36,0.09-0.49,0.26c0.03,0.44,0.56,0.16,0.79,0.27c0.21,0.1,0.28,0.48,0.54,0.27
			c0.02-0.17-0.08-0.32-0.17-0.47c-0.09-0.14-0.25-0.3-0.16-0.46c0.18,0,0.15,0.21,0.29,0.27c0.05,0.02,0.13,0.01,0.21,0
			c-0.24-0.28-0.5-0.55-0.76-0.81c-0.18-0.18-0.37-0.36-0.57-0.53c-0.03-0.03-0.07-0.06-0.1-0.09c-0.15,0.07-0.46,0.05-0.54-0.07
			c0.07-0.14,0.23-0.04,0.31-0.13c-0.14-0.11-0.28-0.23-0.42-0.34c-0.07,0-0.13,0.01-0.17,0.03c-0.11,0.04-0.17,0.18-0.29,0.2
			c-0.19,0.03-0.35-0.11-0.52-0.18c-0.33-0.14-0.52-0.21-0.69-0.44c-0.05-0.07-0.16-0.19-0.1-0.3c0.26,0.11,0.44,0.35,0.76,0.43
			c0.11,0.03,0.19-0.05,0.31-0.05c0.13,0,0.23,0.1,0.32,0.02c-0.53-0.39-1.08-0.75-1.67-1.07c-0.33-0.18-0.67-0.36-1.02-0.52
			c-0.12-0.05-0.23-0.11-0.35-0.16c-0.09,0.08-0.19,0.14-0.27,0.2c-0.1,0.08-0.12,0.15-0.19,0.16c-0.3,0.05-0.58-0.43-0.85-0.61
			c-0.15-0.1-0.32-0.1-0.47-0.16c-0.16-0.07-0.26-0.21-0.43-0.2c-0.06-0.05-0.06-0.12-0.07-0.19c-2.54-0.66-5.14-0.65-7.59-0.05
			c0.04,0.16,0.03,0.34,0.06,0.44c0.01,0.06-0.18,0.12-0.22,0.19c-0.03,0.05-0.02,0.14-0.06,0.21c-0.09,0.16-0.27,0.21-0.2,0.35
			c0.07,0.15,0.37,0.01,0.41,0.21c0.04,0.2-0.2,0.16-0.29,0.29c-0.11,0.15-0.1,0.35-0.17,0.5c-0.03,0.07-0.13,0.22-0.18,0.27
			c-0.1,0.09-0.26,0.01-0.33,0.12c-0.11,0.17,0.12,0.43,0.07,0.6c-0.04,0.12-0.23,0.27-0.31,0.34c-0.23,0.2-0.5,0.34-0.78,0.47
			c-0.27,0.13-0.61,0.2-0.83,0.36c-0.12,0.08-0.19,0.21-0.29,0.29c-0.15,0.12-0.33,0.12-0.48,0.24c-0.13,0.21-0.21,0.41-0.29,0.62
			c-0.09,0.21-0.2,0.41-0.27,0.61c-0.04,0.11-0.09,0.34-0.08,0.47c0.02,0.15,0.14,0.17,0.25,0.31c0.08,0.11,0.17,0.34,0.16,0.46
			c-0.02,0.14-0.12,0.31-0.18,0.48c-0.06,0.18-0.14,0.37-0.16,0.51c-0.02,0.15,0.14,0.38,0.06,0.53c-0.07,0.14-0.27,0.07-0.33,0.22
			c-0.11,0.23,0.35,0.45,0.3,0.7c-0.03,0.13-0.17,0.22-0.19,0.32c-0.02,0.13,0.12,0.31,0.15,0.38c0.05,0.13,0.04,0.31,0.21,0.35
			c0.18-0.09,0.03-0.3,0.03-0.45c0-0.17,0.11-0.4,0.15-0.65c0.02-0.16-0.05-0.32-0.04-0.46c0.02-0.15,0.09-0.28,0.09-0.41
			c0-0.13-0.08-0.34-0.05-0.45c0.13-0.41,0.59-0.35,0.57-0.01c-0.01,0.21-0.18,0.32-0.24,0.51c-0.04,0.16,0.08,0.38,0.11,0.56
			c0.04,0.19,0.06,0.37,0.11,0.52c-0.04,0.11-0.05,0.12-0.1,0.22c0.06,0.22,0.15,0.43,0.2,0.66c0.07,0.31,0.23,0.71,0.01,1.07
			c-0.07,0.11-0.24,0.16-0.29,0.29c-0.05,0.11,0.03,0.3,0.11,0.44c0.09,0.15,0.15,0.3,0.23,0.4c0.06,0.07,0.18,0.13,0.25,0.21
			c0.09,0.1,0.13,0.27,0.22,0.4c0.12,0.16,0.32,0.31,0.47,0.49c0.15,0.18,0.35,0.41,0.5,0.48c0.15,0.07,0.39-0.01,0.55,0.06
			c0.4,0.17,0.33,0.76,0.58,1.06c0.06,0.08,0.17,0.13,0.26,0.2c0.07,0.06,0.12,0.12,0.19,0.18c0.14,0.14,0.35,0.23,0.46,0.35
			c0.16,0.19,0.13,0.64,0.26,0.82c-0.04,0.11-0.13,0.23-0.13,0.33c0.03,0.15,0.16,0.18,0.26,0.32c0.12,0.16,0.07,0.41,0.19,0.55
			c0.04,0.05,0.18,0.11,0.25,0.17c0.18,0.16,0.14,0.44,0.35,0.47c0.14,0.02,0.18-0.11,0.25-0.21c0.12-0.05,0.27-0.14,0.39-0.09
			c0.2,0.09,0.12,0.31,0.1,0.53c-0.01,0.13,0.05,0.27,0.03,0.4c-0.04,0.22-0.34,0.8-0.44,0.9c-0.12,0.12-0.34,0.09-0.54,0.2
			c-0.09,0.05-0.17,0.15-0.24,0.18c-0.12,0.06-0.25,0.03-0.35,0.09c-0.06,0.03-0.14,0.13-0.2,0.18c-0.19,0.16-0.39,0.24-0.42,0.52
			c-0.01,0.12,0.11,0.26,0.06,0.38c-0.06,0.14-0.42,0.12-0.51,0.27c-0.07,0.11-0.06,0.36-0.09,0.52c-0.03,0.12,0.15,0.29,0.19,0.4
			c0.05,0.18,0.06,0.4,0.09,0.6c0.06,0.41,0.04,0.86,0.1,1.25c0.02,0.11,0.05,0.22,0.07,0.33c0.02,0.1,0.04,0.19,0.03,0.28
			c0,0.1-0.05,0.2-0.05,0.29c0,0.31,0.38,0.82,0.58,1.06c0.09,0.12,0.22,0.2,0.3,0.31c0.13,0.17,0.35,0.58,0.36,0.77
			c0.01,0.17-0.09,0.52-0.15,0.75c-0.08,0.3-0.23,0.5-0.36,0.81c-0.06,0.14-0.08,0.3-0.14,0.45c4.06,0.81,8.24-0.06,11.61-2.27
			c-0.09-0.21-0.18-0.4-0.37-0.51c-0.08-0.05-0.18-0.04-0.27-0.09c-0.15-0.07-0.34-0.29-0.5-0.39c-0.1-0.06-0.27-0.09-0.32-0.15
			c-0.08-0.1,0-0.28-0.06-0.38c-0.05-0.07-0.16-0.15-0.24-0.23c-0.13-0.13-0.22-0.26-0.4-0.36c-0.05-0.03-0.14-0.03-0.2-0.07
			c-0.09-0.06-0.12-0.22-0.18-0.32c-0.08-0.12-0.17-0.21-0.18-0.33c0.27-0.3,0.02-0.53,0.04-0.76c0.01-0.11,0.08-0.21,0.09-0.31
			c0.01-0.14-0.07-0.26-0.15-0.42c-0.15-0.29-0.28-0.55-0.59-0.74c-0.14-0.08-0.31-0.09-0.48-0.18c-0.18-0.1-0.34-0.37-0.4-0.6
			c-0.06-0.22-0.07-0.39-0.15-0.52c-0.08-0.12-0.23-0.19-0.27-0.3c-0.02-0.05,0.01-0.1,0.01-0.19c0-0.14-0.07-0.25,0.07-0.36
			c-0.1-0.12-0.19,0.06-0.32-0.03c-0.04-0.23-0.11-0.37-0.42-0.44c-0.14-0.04-0.29,0.09-0.44,0.03c-0.13-0.05-0.16-0.24-0.31-0.34
			c-0.12-0.07-0.28-0.09-0.36-0.15c-0.12-0.09-0.11-0.22-0.2-0.36c-0.06-0.1-0.19-0.29-0.25-0.31c-0.16-0.07-0.43,0.21-0.6-0.01
			c-0.05-0.19,0.27-0.13,0.2-0.31c-0.05-0.14-0.2-0.04-0.3-0.02c-0.12,0.02-0.23,0.04-0.35,0.03c-0.26-0.02-0.38-0.13-0.59-0.12
			c-0.2,0.01-0.27,0.14-0.43,0.26c-0.08,0.06-0.2,0.12-0.32,0.16c-0.08,0.02-0.15,0.03-0.19,0.01c-0.14-0.05-0.18-0.31-0.27-0.42
			c-0.29-0.33-0.61-0.11-0.92-0.25c-0.28-0.13-0.48-0.77-0.34-1.03c0.08-0.16,0.28-0.36,0.39-0.55c0.09-0.15,0.24-0.2,0.31-0.34
			c0.09-0.19-0.1-0.46-0.21-0.55c-0.27-0.19-0.77-0.21-1.05-0.51c-0.02-0.14,0.16-0.15,0.25-0.24c0.05-0.05,0.07-0.14,0.13-0.19
			c0.09-0.08,0.23-0.11,0.33-0.2c0.07-0.07,0.14-0.18,0.22-0.27c0.1-0.1,0.21-0.13,0.25-0.21c0.06-0.1,0.08-0.25,0.03-0.36
			c-0.27-0.11-0.45-0.18-0.64-0.18c-0.42,0-0.57,0.5-0.96,0.45c-0.14-0.02-0.3-0.09-0.45-0.13c-0.12-0.03-0.29-0.03-0.41-0.09
			c-0.14-0.07-0.32-0.31-0.36-0.44c-0.04-0.11-0.03-0.59-0.02-0.67c0.08-0.54,0.43-0.9,0.76-1.14c0.07-0.05,0.16-0.09,0.22-0.15
			c0.09-0.09,0.14-0.27,0.23-0.38c0.16-0.19,0.52-0.19,0.78-0.2c0.29-0.01,0.58-0.12,0.86-0.01c0.14,0.05,0.32,0.19,0.43,0.28
			c0.11,0.08,0.17,0.2,0.27,0.26c0.29,0.16,0.46-0.04,0.76-0.05c0.23,0.15,0.44,0.15,0.65,0.28c0.15,0.09,0.18,0.31,0.3,0.37
			c0.1,0.05,0.24-0.01,0.33,0.05c0.09,0.06,0.16,0.34,0.12,0.46c-0.05,0.15-0.23,0.22-0.26,0.4c0.08,0.22,0.34,0.38,0.51,0.57
			c0.19-0.05,0.17-0.32,0.23-0.5c0.03-0.08,0.07-0.14,0.1-0.21c0.04-0.12,0.04-0.25,0.08-0.35c0.16-0.34,0.46-0.45,0.77-0.5
			c0.1-0.02,0.2-0.03,0.3-0.04c0.17-0.02,0.34-0.1,0.48-0.11c0.2-0.01,0.33,0.03,0.5,0.02c0.31-0.02,0.56-0.04,0.83-0.1
			c0.18-0.17,0.23-0.48,0.33-0.68c0.11-0.01,0.15,0.1,0.25,0.14c0.16,0.04,0.27-0.17,0.39-0.21c0.07-0.02,0.22,0,0.3-0.02
			c0.2-0.05,0.33-0.2,0.48-0.19c0.05,0,0.16,0.06,0.24,0.07c0.11,0.02,0.29-0.03,0.47-0.01c0.12,0.01,0.35,0.11,0.41,0.09
			c0.07-0.03,0.09-0.18,0.13-0.25c0.25-0.33,0.83-0.15,1.21-0.12c0.26,0.02,0.57-0.03,0.79,0.13c-0.13,0.15-0.33-0.02-0.39,0.21
			c-0.08,0.31,0.48,0.12,0.6,0.12c0.23,0.01,0.59,0.11,0.89,0.14c0.26,0.02,0.72,0.08,0.63-0.27c-0.17-0.09-0.36,0.08-0.54,0.08
			c-0.11-0.03-0.05-0.13-0.13-0.18c-0.08-0.05-0.17,0.02-0.25-0.04c-0.08-0.06-0.14-0.25-0.11-0.36c0.09-0.28,0.4-0.27,0.6-0.42
			c0.04-0.28-0.38-0.24-0.54-0.43c0.09-0.13,0.28-0.17,0.46-0.12c0.15,0.04,0.45,0.2,0.5,0.31c0.03,0.06-0.06,0.14-0.02,0.24
			c0.05,0.11,0.15,0.15,0.27,0.18c0.12-0.16-0.18-0.25-0.09-0.35c0.28-0.04,0.58,0.24,0.86,0.32c0.16,0.05,0.37,0.01,0.54,0
			c0.16-0.01,0.39-0.06,0.47,0.12c-0.02,0.15-0.2,0.12-0.3,0.15c-0.35,0.1-0.71,0.24-1.02,0.4c0.06,0.17,0.3,0.21,0.49,0.32
			c0.07,0.05,0.16,0.11,0.23,0.17c0.09,0.06,0.19,0.1,0.26,0.16c0.12,0.1,0.09,0.26,0.22,0.32c0.22,0.1,0.33-0.13,0.27-0.34
			c0.11-0.13,0.21-0.18,0.2-0.31c-0.01-0.24-0.46-0.22-0.36-0.48c0.06-0.16,0.21-0.09,0.32-0.18c0.12-0.32,0.41-0.21,0.51-0.5
			c0.04-0.12-0.06-0.17-0.09-0.31C270.25,21.67,270.28,21.56,270.25,21.49z"/>
	</g>
</g>
</svg>
