<svg xmlns="http://www.w3.org/2000/svg" width="191.926" height="187.649" version="1.0"><path d="M96.93 185.899c.031-3.518 1.966-25.857 2.554-29.5.496-3.074.305-3.75-1.06-3.75-.915 0-2.98-1.316-4.587-2.923-4.67-4.67-3.685-12.333 2.017-15.701 2.248-1.328 3.06-2.547 3.06-4.592v-2.784H36.396l-16.253-25.356C11.203 87.347 2.995 75.127 1.902 74.138c-3.496-3.163-1.93-7.49 2.712-7.49 1.786 0 2.3.559 2.3 2.5 0 1.376.512 2.5 1.14 2.5.626 0 4.226-2.494 8-5.542 5.73-4.63 6.86-6.039 6.86-8.55 0-3.753 2.327-8.461 6.202-12.548l2.977-3.14-3.09-1.825c-1.699-1.004-3.09-2.178-3.09-2.61s5.4-.784 12-.784h12v-7h-10c-5.5 0-10-.267-10-.593s.91-1.748 2.022-3.162l2.022-2.57-2.022-2.152c-1.112-1.184-2.021-2.46-2.021-2.838 0-.377 4.525-.685 10.056-.685h10.057l-.307-5.75c-.276-5.185-.101-5.78 1.781-6.049 2.728-.39 5.201 2.41 3.57 4.041-.756.756-1.157 5.596-1.157 13.958v12.8h9.94c5.468 0 10.176.378 10.461.84.286.463-.809 1.824-2.432 3.025-8.319 6.15-11.473 24.818-5.41 32.022l2.437 2.897-2.498.627c-1.374.345-2.498 1.133-2.498 1.752 0 1.211 9.127 13.715 10.066 13.791.312.025 2.923-3.33 5.803-7.454l5.237-7.5h-5.103c-4.334 0-4.97-.236-4.228-1.563.557-.996.224-3.447-.918-6.75-3.655-10.579-1.332-21.343 6.745-31.26l4.391-5.39-2.747-.657c-5.76-1.377-4.395-1.896 6.254-2.38l11-.5v-6l-9.889-.288-9.889-.288 2.278-2.425c2.174-2.314 2.203-2.54.616-4.962l-1.662-2.537h8.4c9.68 0 11.787-1.2 9.793-5.577-1.565-3.435-1.456-4.188.78-5.385 4.38-2.344 6.61 1.685 3.534 6.381-1.171 1.787-1.47 4.59-1.25 11.715l.289 9.366 12.25.28c6.737.155 12.241.605 12.231 1-.01.396-1.364 2.707-3.01 5.136s-3.663 6.673-4.482 9.432c-1.909 6.427-1.909 17.951 0 24.243 1.98 6.53 2.018 6.409-1.99 6.409-3.774 0-4.666 1.787-1.995 4.003.827.687 3.11 3.892 5.072 7.122s4.098 5.853 4.746 5.826c.648-.026 3.722-3.289 6.832-7.25l5.655-7.201-6.155-.5c-5.624-.457-5.96-.611-3.902-1.786l2.251-1.287-2.001-3.924c-1.218-2.387-2.002-5.895-2.002-8.96 0-4.812 3.172-16.162 5.25-18.788.542-.685.75-2.147.461-3.25-.498-1.907-.04-2.005 9.382-2.005h9.907v-9h-9.723c-9.4 0-9.64-.056-7.25-1.669 1.36-.917 2.634-1.791 2.832-1.942.197-.15-.62-1.65-1.818-3.332l-2.178-3.057h9.1c10.406 0 10.873-.378 8.565-6.92-2.23-6.322-2.03-7.08 1.865-7.08 3.892 0 5.15 1.907 3.07 4.653-1.032 1.361-1.408 5.329-1.432 15.097l-.031 13.25h10.655c10.317 0 10.601.059 8.974 1.856-2.877 3.18-5.63 12.676-5.615 19.369.015 6.207.348 7.18 4.732 13.855 1.235 1.88 2.248 3.757 2.25 4.17s-4.721.75-10.496.75h-10.5v6.893c0 7.645.403 8.123 6.831 8.085 5.73-.035 11.827-3.417 18.206-10.1 4.901-5.134 5.773-6.577 5.325-8.815-.649-3.244 1.63-5.518 4.59-4.579 2.46.781 2.826 5.28.503 6.171-.85.326-5.117 8.014-9.482 17.084l-7.936 16.49-3.464-.65c-2.892-.542-3.654-.296-4.609 1.487-.972 1.817-.741 2.557 1.54 4.938l2.684 2.802-2.332 5.082-2.331 5.083-29.513.264-29.512.265-.317 2.226c-.22 1.548.925 3.408 3.75 6.096 5.168 4.916 5.425 8.56.963 13.643-1.707 1.944-3.76 3.535-4.561 3.535-1.135 0-1.336.942-.907 4.25.302 2.337 1.027 8.75 1.61 14.25s1.314 11.462 1.623 13.25l.561 3.25h-5.611c-4.683 0-5.609-.29-5.595-1.75m-39.516-73.75c0-3-.002-3-5.987-3-4.98 0-6.044.304-6.334 1.808-.759 3.938.51 4.807 6.559 4.492 5.669-.295 5.762-.349 5.762-3.3m20 0c0-2.951-.095-3.005-5.75-3.3-5.74-.3-5.75-.295-5.75 2.583 0 3.942.66 4.351 6.461 4.012 4.866-.285 5.039-.398 5.039-3.295m17.5 0v-3.5h-10v7h10zm20-.05v-3.55l-5.74.3c-4.604.24-5.81.658-6.085 2.108-.714 3.75.55 4.692 6.293 4.692h5.532zm19.813-.2.313-3.25h-6.563c-6.54 0-6.563.01-6.563 2.833 0 3.926.648 4.295 6.96 3.96 5.449-.288 5.545-.347 5.853-3.543m-24.845-14c-.018-.413-.693-1.624-1.5-2.691-1.408-1.862-1.468-1.831-1.468.75 0 1.725.538 2.69 1.5 2.69.825 0 1.485-.337 1.468-.75m8.032-.191c0-1.46-1.648-2.132-3.494-1.423-1.334.512-1.403.814-.34 1.488 1.787 1.132 3.834 1.098 3.834-.065m-61-1.452c0-.766-.675-1.652-1.5-1.969-1.504-.577-2.118 1.41-.834 2.695 1.122 1.121 2.334.744 2.334-.726m8.755.143c-.477-1.448-4.755-2.335-4.755-.987 0 1.429 1.174 2.237 3.25 2.237 1.086 0 1.738-.542 1.505-1.25m8.245.25c0-.55-.9-1-2-1s-2 .45-2 1 .9 1 2 1 2-.45 2-1m12.248-6.25c2.93-3.988 6.353-8.713 7.607-10.5l2.28-3.25h-3.886c-3.75 0-4.09.296-9.645 8.39-5.206 7.585-5.632 8.593-4.44 10.5.724 1.16 1.64 2.11 2.037 2.11.396 0 3.117-3.263 6.047-7.25m40.752 6.309c0-1.437-1.638-2.136-3.41-1.456-2.442.937-1.888 2.397.91 2.397 1.375 0 2.5-.424 2.5-.941m12.14-8.253c8.79-12.705 8.398-11.815 5.16-11.751-2.262.044-3.858 1.424-8.3 7.17-6.987 9.039-7.619 10.325-6.02 12.25.695.839 1.61 1.525 2.033 1.525s3.63-4.137 7.127-9.194M34.534 93.9c1.097-1.513 4.146-5.788 6.775-9.5l4.78-6.75H41.72c-4.254 0-4.52.195-10.096 7.44-7.11 9.237-7.543 10.271-4.537 10.844 4.668.89 5.487.666 7.446-2.034m13.544-3.848c.185-3.63.088-6.75-.215-6.936-.534-.328-2.469 1.935-8.368 9.784l-2.819 3.75h11.067zm50.836-3.087v-9.685l-6.5 9.219c-3.575 5.07-6.5 9.428-6.5 9.684 0 .257 2.925.467 6.5.467h6.5zm44 6.685c1.541-1.65 3.708-3 4.816-3 1.78 0 2.052-.763 2.348-6.587.185-3.623.17-6.752-.034-6.953-.368-.364-14.13 18.226-14.13 19.087 0 1.64 4.677-.061 7-2.547m-28.624-.538c.34-.886-.057-1.786-.936-2.124-1.957-.75-2.85.152-2.095 2.119.759 1.978 2.273 1.98 3.03.005m7.624-.962c0-.834-.89-1.5-2-1.5-1.111 0-2 .666-2 1.5 0 .833.889 1.5 2 1.5s2-.667 2-1.5m-94.543-6.36c3.048-3.774 5.543-7.15 5.543-7.5 0-.353-2.138-.644-4.75-.648l-4.75-.009-.164-5.571c-.09-3.065-.402-5.811-.693-6.103-.492-.491-12.643 8.514-12.643 9.37 0 2.888 9.2 17.32 11.042 17.32.48 0 3.366-3.087 6.415-6.86m42.043 5.86c-.34-.55-1.293-1-2.118-1s-1.222.45-.882 1 1.293 1 2.118 1 1.222-.45.882-1m-8-1c-.34-.55-1.24-1-2-1s-1.66.45-2 1c-.352.57.509 1 2 1 1.49 0 2.352-.43 2-1m-3.5-3.8c0-1.035-2.165-3.2-3.2-3.2-.44 0-.8.9-.8 2q0 2 2 2c1.1 0 2-.36 2-.8m7.391-.623c-.581-1.515-3.356-2.946-4.158-2.144-1.065 1.065.832 3.567 2.704 3.567 1.319 0 1.814-.485 1.454-1.423m45.609.545c0-1.445-2.834-3.343-3.957-2.65-2.022 1.25-1.082 3.528 1.457 3.528 1.375 0 2.5-.395 2.5-.878m7-1.122c-1.196-2.235-5-2.742-5-.667 0 1.933 1.018 2.667 3.702 2.667 2.058 0 2.228-.262 1.298-2m-58-6c0-1.556-.667-2-3-2s-3 .444-3 2c0 1.555.666 2 3 2s3-.445 3-2m52.82-.148c-.43-2.89-3.355-4.717-4.97-3.103-.938.938-.8 1.65.628 3.227 2.442 2.698 4.751 2.632 4.341-.124" style="fill:#fff"/></svg>